<?xml version="1.0" encoding="utf-8"?>
<!-- Generator: Adobe Illustrator 23.0.1, SVG Export Plug-In . SVG Version: 6.00 Build 0)  -->
<svg version="1.1" id="Calque_1" xmlns="http://www.w3.org/2000/svg" xmlns:xlink="http://www.w3.org/1999/xlink" x="0px" y="0px"
	 viewBox="0 0 94.7 19.4" style="enable-background:new 0 0 94.7 19.4;" xml:space="preserve">
<style type="text/css">
	.st0{fill:#1D0444;}
</style>
<image style="overflow:visible;" width="724" height="734" xlink:href="../../../../../../../Desktop/Capture d’écran 2019-10-27 à 20.32.09.png"  transform="matrix(0.5 0 0 0.5 204.3342 -142.326)">
</image>
<g>
	<g>
		<path class="st0" d="M23.1,16.7c-1.6-1.5-2.3-3.6-2.3-6.3v-10h6.1v9.8c0,1.3,0.2,2.3,0.7,2.9c0.5,0.6,1.2,0.9,2.1,0.9
			c0.9,0,1.6-0.3,2.1-0.9c0.5-0.6,0.7-1.6,0.7-2.9V0.4h6v10c0,2.7-0.8,4.8-2.3,6.3c-1.6,1.5-3.7,2.3-6.5,2.3
			C26.9,19,24.7,18.2,23.1,16.7z"/>
	</g>
	<path class="st0" d="M58.8,18.5l-0.1-8.3l-3.9,6.6h-2.7l-3.9-6.3v8h-5.6V0.4h5l5.9,9.7l5.7-9.7h5l0.1,18.1H58.8z"/>
	<path class="st0" d="M83.6,13.9v4.6H68.5V0.4h14.7V5h-8.7v2.1h7.7v4.4h-7.7v2.4H83.6z"/>
	<path class="st0" d="M88.7,17.9c-0.6-0.6-1-1.4-1-2.4s0.3-1.8,1-2.4c0.6-0.6,1.5-0.9,2.4-0.9s1.8,0.3,2.4,0.9c0.6,0.6,1,1.4,1,2.4
		s-0.3,1.8-1,2.4c-0.6,0.6-1.5,0.9-2.4,0.9S89.4,18.5,88.7,17.9z"/>
	<polygon class="st0" points="18.2,0.4 0.2,0.4 9.1,18.8 	"/>
</g>
</svg>
