<?xml version="1.0" standalone="no"?>
<!DOCTYPE svg PUBLIC "-//W3C//DTD SVG 20010904//EN"
 "http://www.w3.org/TR/2001/REC-SVG-20010904/DTD/svg10.dtd">
<svg version="1.0" xmlns="http://www.w3.org/2000/svg"
 width="700.000000pt" height="700.000000pt" viewBox="0 0 700.000000 700.000000"
 preserveAspectRatio="xMidYMid meet">
<metadata>
Created by potrace 1.11, written by Peter Selinger 2001-2013
</metadata>
<g transform="translate(0.000000,700.000000) scale(0.100000,-0.100000)"
fill="#000000" stroke="none">
<path d="M348 5718 c49 -92 118 -225 255 -488 38 -74 98 -189 132 -255 34 -66
95 -183 135 -260 40 -77 98 -189 130 -250 32 -60 95 -182 140 -270 45 -88 104
-200 130 -250 26 -49 85 -162 130 -250 46 -88 106 -205 135 -260 29 -55 92
-176 140 -270 48 -93 105 -201 125 -240 21 -38 77 -146 125 -240 88 -170 161
-311 260 -500 57 -108 144 -277 275 -530 45 -88 102 -196 125 -240 23 -44 59
-113 79 -153 l37 -74 38 74 c51 99 200 388 271 523 32 61 108 209 170 330 62
121 132 256 155 300 24 44 85 163 138 265 52 102 127 248 167 325 74 143 169
328 325 630 48 94 114 220 145 280 32 61 101 196 155 300 145 281 206 399 218
413 5 6 6 12 2 12 -4 0 -3 6 2 13 6 6 42 73 80 147 129 249 220 424 318 615
54 105 122 236 152 293 l54 102 -2396 0 -2395 0 48 -92z"/>
<path d="M5538 3605 c-2 -1 -37 -5 -79 -9 -123 -10 -261 -52 -388 -118 -314
-164 -530 -468 -587 -828 -10 -60 -10 -242 -1 -310 26 -188 118 -402 232 -539
172 -208 374 -334 632 -397 139 -33 424 -24 538 17 17 6 41 13 55 15 45 9 226
103 295 154 240 175 396 426 451 730 12 66 11 281 -2 355 -93 528 -532 910
-1070 929 -41 2 -75 2 -76 1z"/>
</g>
</svg>
