<?xml version="1.0" encoding="utf-8"?>
<!-- Generator: Adobe Illustrator 23.0.1, SVG Export Plug-In . SVG Version: 6.00 Build 0)  -->
<svg version="1.1" xmlns="http://www.w3.org/2000/svg" xmlns:xlink="http://www.w3.org/1999/xlink" x="0px" y="0px"
	 viewBox="0 0 100 100" style="enable-background:new 0 0 100 100;" xml:space="preserve">
<style type="text/css">
	.st0{display:none;}
	.st1{display:inline;opacity:0.2;enable-background:new    ;}
	.st2{fill:#DB3704;}
</style>
<g id="Calque_1" class="st0">
	<g class="st1">
		
			<image style="overflow:visible;" width="238" height="244" xlink:href="E7D9F82DA78B7482.png"  transform="matrix(1 0 0 1 -69 -72)">
		</image>
		<g>
			<path class="st2" d="M26.3,99.2c0,0-20.9-2.5-22.5-25.5s18.4-31,26.1-38.9s15-14.5,18.3-20.6S62.7-0.1,72.4,0.6
				s13.4,3.8,19.1,12.8s7.6,18.6-1.3,26s-24.9,10.2-32,15c-7.1,4.7-12.9,7.1-15.5,13.8c-2.6,6.6-2.9,10.2-3,15.7
				C39.7,89.4,38.9,101.1,26.3,99.2z"/>
		</g>
	</g>
</g>
<g id="Calque_2">
	<path class="st2" d="M90.3,11.6c0.5,1,1.1,1.9,1.7,2.8c2.8,4.5,9.9,18.3-4.1,26.8C71,51.5,69.4,47.7,60.5,53.1S44,62.9,41.8,70.4
		c-2.2,7.4-1.2,14.5-2.4,18.6c-1.2,4.1-1.2,11.4-12.9,10.5C14.7,98.7,3.6,86.7,3.7,72.4s6-21.8,15.5-28.9S46.3,18.8,52,9.6
		S71,0.5,71,0.5S83.8-0.7,90.3,11.6z"/>
</g>
</svg>
