<?xml version="1.0" encoding="utf-8"?>
<!-- Generator: Adobe Illustrator 23.0.1, SVG Export Plug-In . SVG Version: 6.00 Build 0)  -->
<svg version="1.1" id="Calque_1" xmlns="http://www.w3.org/2000/svg" xmlns:xlink="http://www.w3.org/1999/xlink" x="0px" y="0px"
	 viewBox="0 0 100 100" style="enable-background:new 0 0 100 100;" xml:space="preserve">
<style type="text/css">
	.st0{display:none;}
	.st1{display:inline;opacity:0.2;enable-background:new    ;}
	.st2{fill:#DB3704;}
</style>
<g class="st0">
	<g class="st1">
		
			<image style="overflow:visible;enable-background:new    ;" width="238" height="244" xlink:href="E7D9F82DA78B7482.png"  transform="matrix(1 0 0 1 -69 -72)">
		</image>
		<g>
			<path class="st2" d="M26.3,99.2c0,0-20.9-2.5-22.5-25.5s18.4-31,26.1-38.9s15-14.5,18.3-20.6S62.7-0.1,72.4,0.6
				s13.4,3.8,19.1,12.8s7.6,18.6-1.3,26s-24.9,10.2-32,15c-7.1,4.7-12.9,7.1-15.5,13.8c-2.6,6.6-2.9,10.2-3,15.7
				C39.7,89.4,38.9,101.1,26.3,99.2z"/>
		</g>
	</g>
</g>
<path class="st2" d="M0.6,66.6c-0.2,0.8-0.1,1.7,0.3,2.5c1.7,3.5,8.4,14.3,24,14.3c18.6,0,40.7-11,49.7-17.3s25-19.4,25-32.3
	S91,16.6,85.3,16.6s-17.1,5.2-27.5,16.2S42.9,53.7,35.7,57.5S23.2,63.1,15,62.2C7.5,61.5,1.8,62.4,0.6,66.6z"/>
</svg>
