<?xml version="1.0" encoding="utf-8"?>
<!-- Generator: Adobe Illustrator 23.0.1, SVG Export Plug-In . SVG Version: 6.00 Build 0)  -->
<svg version="1.1" id="Calque_1" xmlns="http://www.w3.org/2000/svg" xmlns:xlink="http://www.w3.org/1999/xlink" x="0px" y="0px"
	 viewBox="0 0 100 100" style="enable-background:new 0 0 100 100;" xml:space="preserve">
<style type="text/css">
	.st0{display:none;}
	.st1{display:inline;opacity:0.2;enable-background:new    ;}
	.st2{fill:#DB3704;}
</style>
<g class="st0">
	<g class="st1">
		
			<image style="overflow:visible;enable-background:new    ;" width="238" height="244" xlink:href="E7D9F82DA78B7482.png"  transform="matrix(1 0 0 1 -69 -72)">
		</image>
		<g>
			<path class="st2" d="M26.3,99.2c0,0-20.9-2.5-22.5-25.5s18.4-31,26.1-38.9s15-14.5,18.3-20.6S62.7-0.1,72.4,0.6
				s13.4,3.8,19.1,12.8s7.6,18.6-1.3,26s-24.9,10.2-32,15c-7.1,4.7-12.9,7.1-15.5,13.8c-2.6,6.6-2.9,10.2-3,15.7
				C39.7,89.4,38.9,101.1,26.3,99.2z"/>
		</g>
	</g>
</g>
<path class="st2" d="M2.3,45.7c0.2-1.1,0.4-2.3,0.5-3.4C3.3,38.9,4.3,30.8,8,25.6c4.8-6.8,12.4-14.4,30.4-14.4s19.1,13.4,19.4,16.5
	c0.3,3.1,0,10.5,2,16.3S68.5,58.3,76,62.6c7.6,4.3,23.4,9.2,23.3,16.1c-0.1,6.9-26.2,10.6-41.5,10C42.5,88,8.3,86,3.1,73.9
	C-1.1,64.1,1.4,50.8,2.3,45.7z"/>
</svg>
